<?xml version="1.0" encoding="utf-8"?>
<!-- Generator: Adobe Illustrator 23.0.1, SVG Export Plug-In . SVG Version: 6.00 Build 0)  -->
<svg version="1.1" id="Layer_1" focusable="false" xmlns="http://www.w3.org/2000/svg" xmlns:xlink="http://www.w3.org/1999/xlink"
	 x="0px" y="0px" viewBox="0 0 576 512" style="enable-background:new 0 0 576 512;" xml:space="preserve">
<style type="text/css">
	.st0{fill:none;}
	.st1{fill:#FF3333;}
</style>
<g>
	<path class="st0" d="M233.2,367.1c3.5-1.4,7.9-1.9,11.8-1.9c1.4,0,2.9,0.1,4.3,0.2c0.6-0.2,1.2-0.2,1.9-0.2c1.8,0,3.2,0.6,4.3,1.5
		c7.5,2.3,14.1,6.9,19.2,13.3c0.3-0.3,0.6-0.7,0.9-1c2-2.1,4.2-4.1,6.5-5.8v-1.9c0-3.7,2.5-6.2,6.2-6.2c2.2,0,3.9,0.8,5,2.3
		c4.3-1.5,8.9-2.3,13.6-2.3c2.1,0,4.2,0.2,6.2,0.4V167.3h-92.8h-30.9v196.6c4.8-2.8,10.3-4.4,16-4.8c0.1,0,0.2,0,0.4,0
		c0.3,0,0.6,0,0.9,0c0.4,0,0.9,0,1.4,0c0.6,0,1.2,0,1.8,0c0.3,0,0.6,0,0.9,0.1c0.3,0,0.5,0,0.8,0.1c0.4,0,0.7,0.1,1.1,0.1
		c0.2,0,0.4,0,0.5,0.1c0.4,0.1,0.8,0.1,1.2,0.2c0.2,0,0.3,0.1,0.5,0.1c0.4,0.1,0.8,0.1,1.1,0.2c0.5,0.1,0.9,0.2,1.4,0.3
		c0.1,0,0.1,0,0.2,0c5.3,1.4,10.3,3.9,14.5,7.4C232.3,367.4,232.8,367.3,233.2,367.1z M282.1,185.8c0-3.7,2.5-6.2,6.2-6.2
		s6.2,2.5,6.2,6.2v12.4c0,3.7-2.5,6.2-6.2,6.2s-6.2-2.5-6.2-6.2V185.8z M282.1,222.9c0-3.7,2.5-6.2,6.2-6.2s6.2,2.5,6.2,6.2v12.4
		c0,3.7-2.5,6.2-6.2,6.2s-6.2-2.5-6.2-6.2V222.9z M282.1,260c0-3.7,2.5-6.2,6.2-6.2s6.2,2.5,6.2,6.2v12.4c0,3.7-2.5,6.2-6.2,6.2
		s-6.2-2.5-6.2-6.2V260z M282.1,297.1c0-3.7,2.5-6.2,6.2-6.2s6.2,2.5,6.2,6.2v12.4c0,3.7-2.5,6.2-6.2,6.2s-6.2-2.5-6.2-6.2V297.1z
		 M282.1,334.2c0-3.7,2.5-6.2,6.2-6.2s6.2,2.5,6.2,6.2v12.4c0,3.7-2.5,6.2-6.2,6.2s-6.2-2.5-6.2-6.2V334.2z M245,185.8
		c0-3.7,2.5-6.2,6.2-6.2s6.2,2.5,6.2,6.2v12.4c0,3.7-2.5,6.2-6.2,6.2s-6.2-2.5-6.2-6.2V185.8z M245,222.9c0-3.7,2.5-6.2,6.2-6.2
		s6.2,2.5,6.2,6.2v12.4c0,3.7-2.5,6.2-6.2,6.2s-6.2-2.5-6.2-6.2V222.9z M245,260c0-3.7,2.5-6.2,6.2-6.2s6.2,2.5,6.2,6.2v12.4
		c0,3.7-2.5,6.2-6.2,6.2s-6.2-2.5-6.2-6.2V260z M245,297.1c0-3.7,2.5-6.2,6.2-6.2s6.2,2.5,6.2,6.2v12.4c0,3.7-2.5,6.2-6.2,6.2
		s-6.2-2.5-6.2-6.2V297.1z M245,334.2c0-3.7,2.5-6.2,6.2-6.2s6.2,2.5,6.2,6.2v12.4c0,3.7-2.5,6.2-6.2,6.2s-6.2-2.5-6.2-6.2V334.2z
		 M220.2,346.6c0,3.7-2.5,6.2-6.2,6.2s-6.2-2.5-6.2-6.2v-12.4c0-3.7,2.5-6.2,6.2-6.2s6.2,2.5,6.2,6.2V346.6z M220.2,309.5
		c0,3.7-2.5,6.2-6.2,6.2s-6.2-2.5-6.2-6.2v-12.4c0-3.7,2.5-6.2,6.2-6.2s6.2,2.5,6.2,6.2V309.5z M220.2,272.4c0,3.7-2.5,6.2-6.2,6.2
		s-6.2-2.5-6.2-6.2V260c0-3.7,2.5-6.2,6.2-6.2s6.2,2.5,6.2,6.2V272.4z M220.2,235.3c0,3.7-2.5,6.2-6.2,6.2s-6.2-2.5-6.2-6.2v-12.4
		c0-3.7,2.5-6.2,6.2-6.2s6.2,2.5,6.2,6.2V235.3z M220.2,198.2c0,3.7-2.5,6.2-6.2,6.2s-6.2-2.5-6.2-6.2v-12.4c0-3.7,2.5-6.2,6.2-6.2
		s6.2,2.5,6.2,6.2V198.2z"/>
	<path class="st0" d="M84.2,383.7v1.6c5.5-3.8,12-6.4,19.2-7.2c0.9-6,3-11.6,6-16.6c-0.3-0.8-0.4-1.6-0.4-2.5v-12.4
		c0-3.7,2.5-6.2,6.2-6.2s6.2,2.5,6.2,6.2v1.9c7-5.1,15.5-8.1,24.7-8.1c0.7,0,1.3,0,2,0.1c0.2,0,0.3,0,0.5,0c0.6,0,1.2,0.1,1.8,0.1
		c0.1,0,0.1,0,0.2,0c5,0.5,9.8,1.9,14.2,4.1c0.1,0.1,0.3,0.1,0.4,0.2c0.4,0.2,0.7,0.4,1.1,0.5c4,2.1,7.6,4.8,10.8,7.9V161.1
		c0-3.7,2.5-6.2,6.2-6.2H214V68.4H59.5v346.3h6.6c0.9-6,2.9-11.6,6-16.5c-0.2-0.6-0.3-1.3-0.3-2v-12.4c0-3.7,2.5-6.2,6.2-6.2
		C81.7,377.5,84.2,380,84.2,383.7z M183.1,86.9c0-3.7,2.5-6.2,6.2-6.2s6.2,2.5,6.2,6.2v12.4c0,3.7-2.5,6.2-6.2,6.2s-6.2-2.5-6.2-6.2
		V86.9z M183.1,124c0-3.7,2.5-6.2,6.2-6.2s6.2,2.5,6.2,6.2v12.4c0,3.7-2.5,6.2-6.2,6.2s-6.2-2.5-6.2-6.2V124z M146,86.9
		c0-3.7,2.5-6.2,6.2-6.2s6.2,2.5,6.2,6.2v12.4c0,3.7-2.5,6.2-6.2,6.2s-6.2-2.5-6.2-6.2V86.9z M146,124c0-3.7,2.5-6.2,6.2-6.2
		s6.2,2.5,6.2,6.2v12.4c0,3.7-2.5,6.2-6.2,6.2s-6.2-2.5-6.2-6.2V124z M146,161.1c0-3.7,2.5-6.2,6.2-6.2s6.2,2.5,6.2,6.2v12.4
		c0,3.7-2.5,6.2-6.2,6.2s-6.2-2.5-6.2-6.2V161.1z M146,198.2c0-3.7,2.5-6.2,6.2-6.2s6.2,2.5,6.2,6.2v12.4c0,3.7-2.5,6.2-6.2,6.2
		s-6.2-2.5-6.2-6.2V198.2z M146,235.3c0-3.7,2.5-6.2,6.2-6.2s6.2,2.5,6.2,6.2v12.4c0,3.7-2.5,6.2-6.2,6.2s-6.2-2.5-6.2-6.2V235.3z
		 M146,272.4c0-3.7,2.5-6.2,6.2-6.2s6.2,2.5,6.2,6.2v12.4c0,3.7-2.5,6.2-6.2,6.2s-6.2-2.5-6.2-6.2V272.4z M146,309.5
		c0-3.7,2.5-6.2,6.2-6.2s6.2,2.5,6.2,6.2v12.4c0,3.7-2.5,6.2-6.2,6.2s-6.2-2.5-6.2-6.2V309.5z M108.9,86.9c0-3.7,2.5-6.2,6.2-6.2
		s6.2,2.5,6.2,6.2v12.4c0,3.7-2.5,6.2-6.2,6.2s-6.2-2.5-6.2-6.2V86.9z M108.9,124c0-3.7,2.5-6.2,6.2-6.2s6.2,2.5,6.2,6.2v12.4
		c0,3.7-2.5,6.2-6.2,6.2s-6.2-2.5-6.2-6.2V124z M108.9,161.1c0-3.7,2.5-6.2,6.2-6.2s6.2,2.5,6.2,6.2v12.4c0,3.7-2.5,6.2-6.2,6.2
		s-6.2-2.5-6.2-6.2V161.1z M108.9,198.2c0-3.7,2.5-6.2,6.2-6.2s6.2,2.5,6.2,6.2v12.4c0,3.7-2.5,6.2-6.2,6.2s-6.2-2.5-6.2-6.2V198.2z
		 M108.9,235.3c0-3.7,2.5-6.2,6.2-6.2s6.2,2.5,6.2,6.2v12.4c0,3.7-2.5,6.2-6.2,6.2s-6.2-2.5-6.2-6.2V235.3z M108.9,272.4
		c0-3.7,2.5-6.2,6.2-6.2s6.2,2.5,6.2,6.2v12.4c0,3.7-2.5,6.2-6.2,6.2s-6.2-2.5-6.2-6.2V272.4z M108.9,309.5c0-3.7,2.5-6.2,6.2-6.2
		s6.2,2.5,6.2,6.2v12.4c0,3.7-2.5,6.2-6.2,6.2s-6.2-2.5-6.2-6.2V309.5z M71.8,86.9c0-3.7,2.5-6.2,6.2-6.2s6.2,2.5,6.2,6.2v12.4
		c0,3.7-2.5,6.2-6.2,6.2s-6.2-2.5-6.2-6.2V86.9z M71.8,124c0-3.7,2.5-6.2,6.2-6.2s6.2,2.5,6.2,6.2v12.4c0,3.7-2.5,6.2-6.2,6.2
		s-6.2-2.5-6.2-6.2V124z M71.8,161.1c0-3.7,2.5-6.2,6.2-6.2s6.2,2.5,6.2,6.2v12.4c0,3.7-2.5,6.2-6.2,6.2s-6.2-2.5-6.2-6.2V161.1z
		 M71.8,198.2c0-3.7,2.5-6.2,6.2-6.2s6.2,2.5,6.2,6.2v12.4c0,3.7-2.5,6.2-6.2,6.2s-6.2-2.5-6.2-6.2V198.2z M71.8,235.3
		c0-3.7,2.5-6.2,6.2-6.2s6.2,2.5,6.2,6.2v12.4c0,3.7-2.5,6.2-6.2,6.2s-6.2-2.5-6.2-6.2V235.3z M71.8,272.4c0-3.7,2.5-6.2,6.2-6.2
		s6.2,2.5,6.2,6.2v12.4c0,3.7-2.5,6.2-6.2,6.2s-6.2-2.5-6.2-6.2V272.4z M71.8,309.5c0-3.7,2.5-6.2,6.2-6.2s6.2,2.5,6.2,6.2v12.4
		c0,3.7-2.5,6.2-6.2,6.2s-6.2-2.5-6.2-6.2V309.5z M78,365.2c-3.7,0-6.2-2.5-6.2-6.2v-12.4c0-3.7,2.5-6.2,6.2-6.2s6.2,2.5,6.2,6.2
		V359C84.2,362.7,81.7,365.2,78,365.2z"/>
	<polygon class="st0" points="523.2,217.4 510.1,217.4 510.1,258.2 523.2,268.5 	"/>
	<path class="st0" d="M188.1,381.2l-0.6,0.6l0,0c-1,1.5-2.9,2.7-5,2.6c-0.4,0-0.9,0-1.2-0.2l0,0c-0.3-0.1-0.6-0.2-0.9-0.3l0,0
		c-0.2-0.1-0.5-0.2-0.7-0.3c-0.1-0.1-0.2-0.1-0.3-0.2s-0.2-0.1-0.3-0.2c-1.4-0.9-2.4-2.3-2.8-4c-1.9-15.5-14.8-26.6-30.3-26.6
		c-17.3,0-30.9,13.6-30.9,30.9c0,3.7-2.5,6.2-6.2,6.2c-0.5,0-1,0-1.5,0c-0.3,0-0.7,0-1,0.1c-0.1,0-0.2,0-0.4,0
		c-13.6,1.2-24.6,11.3-27.5,24.6H210c-1.4-3.9-2.1-8.1-2.1-12.4c0-0.6,0-1.3,0-1.9c0.5-9.7,4.7-18.7,12-25.6
		c-3.7-2.2-7.9-3.4-12.1-3.4C199.8,371.4,193,375.1,188.1,381.2z"/>
	<path class="st0" d="M306.8,377.5c-5,0-9.9,1.1-14.1,3.3c-0.7,0.7-1.5,1.1-2.5,1.4c-4.5,2.8-8.2,6.9-10.6,12
		c-0.9,1.8-2.1,2.9-3.7,3.2c-0.7,0.3-1.3,0.5-1.9,0.5c-3.1,0-4.9-1.9-5.6-3.7c-4.9-13.6-21-20.4-34.6-13c-0.9,0.4-1.9,0.6-2.8,0.6
		c-1,0.7-1.9,1.4-2.8,2.3c-4.6,4.5-7.3,10.7-7.3,17.5c0,4.3,1.4,9,3.7,13h112.5c0.6-1.9,0.6-4.3,0.6-6.2
		C337.7,391.1,324.1,377.5,306.8,377.5z"/>
	<path class="st0" d="M451.3,228.5L351.2,307c-0.6,0.5-1.1,1.2-1.1,1.9v7.9c0,1.4,1.4,2.4,2.8,2.4h10.3v-2.1c0-2,1.1-3.9,2.6-5.1
		l81.6-63.8c2.4-1.9,5.7-1.9,8,0l81.2,63.7c1.6,1.2,2.3,3.1,2.3,5.1v2.2h10.9c1.4,0,2.1-1.1,2.1-2.4v-8c0-0.8-0.2-1.5-0.8-1.9
		L451.3,228.5z"/>
	<path class="st0" d="M376.2,320.5v93.6h39.2v-77.7c0-3.6,3.6-6.5,7.2-6.5h57.5c3.6,0,5.9,2.9,5.9,6.5v77.7h39.9v-93.7l-74.7-58.6
		L376.2,320.5z"/>
	<rect x="428.5" y="342.9" class="st0" width="44.4" height="71.2"/>
	<path class="st1" d="M559.1,296.6l-22.8-17.9v-67.8c0-3.6-2.6-6.5-6.2-6.5H504c-3.6,0-6.9,2.9-6.9,6.5V248l-41.8-32.9
		c-2.4-1.9-5.6-1.9-8,0l-104.2,81.6c-3.8,3-6.1,7.4-6.1,12.2v7.9c0,8.6,7.3,15.5,15.8,15.5h10.3v82.2h11.7c3.7,0,6.2,2.5,6.2,6.2
		s-2.5,6.2-6.2,6.2h-6.1c0.4,0.1,0.9,0.1,1.3,0.1h162.7c3.6,0,6.2-2.9,6.2-6.5v-88.2h10.9c8.6,0,15.2-7,15.2-15.5v-8
		C565,304,562.8,299.6,559.1,296.6z M510.1,217.4h13.1v51.1l-13.1-10.3V217.4z M472.9,414.1h-44.4v-71.2h44.4V414.1z M525.8,414.1
		H486v-77.7c0-3.6-2.3-6.5-5.9-6.5h-57.5c-3.6,0-7.2,2.9-7.2,6.5v77.7h-39.2v-93.6l74.9-58.7l74.7,58.6V414.1z M551.9,316.9
		c0,1.4-0.8,2.4-2.1,2.4h-10.9v-2.2c0-2-0.8-3.9-2.3-5.1l-81.2-63.7c-2.4-1.9-5.7-1.9-8,0l-81.6,63.8c-1.6,1.2-2.6,3.1-2.6,5.1v2.1
		h-10.3c-1.4,0-2.8-1.1-2.8-2.4V309c0-0.8,0.5-1.5,1.1-1.9l100.2-78.5l99.8,78.4c0.6,0.5,0.8,1.2,0.8,1.9L551.9,316.9L551.9,316.9z"
		/>
	<path class="st1" d="M363.1,420.6v-6h-13.4c0.3-2,0.4-4.1,0.4-6.2c0-17.5-10-32.3-24.7-39.2V161.1c0-3.7-2.5-6.2-6.2-6.2h-92.8
		V62.2c0-3.7-2.5-6.2-6.2-6.2h-167c-3.7,0-6.2,2.5-6.2,6.2v352.5h-9V427h15.3h18.5h148.4H342h26.6
		C365.6,426.4,363.1,423.8,363.1,420.6z M71.8,383.7v12.4c0,0.7,0.1,1.4,0.3,2c-3.1,5-5.2,10.6-6,16.5h-6.6V68.4l0,0l0,0H214V155
		h-30.9c-3.7,0-6.2,2.5-6.2,6.2v192.3c-3.2-3.2-6.8-5.8-10.8-7.9c-0.3-0.2-0.7-0.4-1.1-0.5c-0.1-0.1-0.3-0.1-0.4-0.2
		c-4.4-2.1-9.2-3.5-14.2-4.1c-0.1,0-0.1,0-0.2,0c-0.6-0.1-1.2-0.1-1.8-0.1c-0.2,0-0.3,0-0.5,0c-0.7,0-1.3-0.1-2-0.1
		c-9.2,0-17.7,3-24.7,8.1v-1.9c0-3.7-2.5-6.2-6.2-6.2s-6.2,2.5-6.2,6.2V359c0,0.9,0.2,1.8,0.4,2.5c-3,5-5.1,10.6-6,16.6
		c-7.1,0.8-13.6,3.4-19.2,7.2v-1.6c0-3.7-2.5-6.2-6.2-6.2C74.3,377.5,71.8,380,71.8,383.7z M207.9,400.4c0,0.6,0,1.3,0,1.9
		c0,4.3,0.7,8.4,2.1,12.4H78.6c2.9-13.3,13.9-23.4,27.5-24.6c0.1,0,0.2,0,0.4,0c0.3,0,0.7-0.1,1-0.1c0.5,0,1,0,1.5,0
		c3.7,0,6.2-2.5,6.2-6.2c0-17.3,13.6-30.9,30.9-30.9c15.5,0,28.4,11.1,30.3,26.6c0.4,1.7,1.4,3.1,2.8,4c0.1,0.1,0.2,0.1,0.3,0.2
		s0.2,0.1,0.3,0.2c0.2,0.1,0.5,0.2,0.7,0.3l0,0c0.3,0.1,0.6,0.2,0.9,0.3l0,0c0.4,0.1,0.8,0.2,1.2,0.2c2,0,3.9-1.1,5-2.6l0,0l0.6-0.6
		c4.9-6.2,11.7-9.9,19.8-9.9c4.2,0,8.3,1.2,12.1,3.4C212.6,381.6,208.4,390.7,207.9,400.4z M217.4,360.2c-0.1,0-0.1,0-0.2,0
		c-0.5-0.1-0.9-0.2-1.4-0.3c-0.4-0.1-0.8-0.2-1.1-0.2c-0.2,0-0.3-0.1-0.5-0.1c-0.4-0.1-0.8-0.1-1.2-0.2c-0.2,0-0.4,0-0.5-0.1
		c-0.4,0-0.7-0.1-1.1-0.1c-0.3,0-0.5,0-0.8-0.1c-0.3,0-0.6,0-0.9-0.1c-0.6,0-1.2,0-1.8,0c-0.5,0-0.9,0-1.4,0c-0.3,0-0.6,0-0.9,0
		c-0.1,0-0.2,0-0.4,0c-5.6,0.4-11.2,2-16,4.8V167.3h30.9H313v198.3c-2-0.3-4.1-0.4-6.2-0.4c-4.7,0-9.2,0.8-13.6,2.3
		c-1.1-1.4-2.8-2.3-5-2.3c-3.7,0-6.2,2.5-6.2,6.2v1.9c-2.3,1.7-4.5,3.6-6.5,5.8c-0.3,0.3-0.6,0.7-0.9,1c-5.1-6.4-11.7-11-19.2-13.3
		c-1.1-1-2.5-1.5-4.3-1.5c-0.7,0-1.3,0.1-1.9,0.2c-1.4-0.2-2.8-0.2-4.3-0.2c-3.9,0-8.2,0.5-11.8,1.9c-0.4,0.1-0.9,0.3-1.3,0.5
		C227.6,364.1,222.6,361.6,217.4,360.2z M337.1,414.6H224.6c-2.4-4-3.7-8.7-3.7-13c0-6.8,2.7-13,7.3-17.5c0.9-0.8,1.8-1.6,2.8-2.3
		c1,0,1.9-0.2,2.8-0.6c13.6-7.4,29.7-0.6,34.6,13c0.6,1.9,2.5,3.7,5.6,3.7c0.6,0,1.2-0.2,1.9-0.5c1.6-0.3,2.8-1.4,3.7-3.2
		c2.4-5.1,6.1-9.2,10.6-12c1-0.3,1.8-0.8,2.5-1.4c4.2-2.1,9.1-3.3,14.1-3.3c17.3,0,30.9,13.6,30.9,30.9
		C337.7,410.3,337.7,412.8,337.1,414.6z"/>
	<path class="st1" d="M16.2,414.6c-3.7,0-6.2,2.5-6.2,6.2s2.5,6.2,6.2,6.2H38v-12.4L16.2,414.6L16.2,414.6z"/>
	<path class="st1" d="M550.4,427c3.7,0,6.2-2.5,6.2-6.2s-2.5-6.2-6.2-6.2h-21.8V427H550.4z"/>
	<path class="st1" d="M381,420.8c0-3.7-2.5-6.2-6.2-6.2h-11.7v6c0,3.2,2.5,5.8,5.5,6.4h6.1C378.5,427,381,424.5,381,420.8z"/>
	<path class="st1" d="M214,216.8c-3.7,0-6.2,2.5-6.2,6.2v12.4c0,3.7,2.5,6.2,6.2,6.2s6.2-2.5,6.2-6.2V223
		C220.2,219.2,217.8,216.8,214,216.8z"/>
	<path class="st1" d="M214,328.1c-3.7,0-6.2,2.5-6.2,6.2v12.4c0,3.7,2.5,6.2,6.2,6.2s6.2-2.5,6.2-6.2v-12.4
		C220.2,330.5,217.8,328.1,214,328.1z"/>
	<path class="st1" d="M214,253.9c-3.7,0-6.2,2.5-6.2,6.2v12.4c0,3.7,2.5,6.2,6.2,6.2s6.2-2.5,6.2-6.2V260
		C220.2,256.3,217.8,253.9,214,253.9z"/>
	<path class="st1" d="M214,291c-3.7,0-6.2,2.5-6.2,6.2v12.4c0,3.7,2.5,6.2,6.2,6.2s6.2-2.5,6.2-6.2v-12.4
		C220.2,293.4,217.8,291,214,291z"/>
	<path class="st1" d="M214,179.7c-3.7,0-6.2,2.5-6.2,6.2v12.4c0,3.7,2.5,6.2,6.2,6.2s6.2-2.5,6.2-6.2v-12.4
		C220.2,182.1,217.8,179.7,214,179.7z"/>
	<path class="st1" d="M251.1,241.5c3.7,0,6.2-2.5,6.2-6.2v-12.4c0-3.7-2.5-6.2-6.2-6.2s-6.2,2.5-6.2,6.2v12.4
		C245,239,247.4,241.5,251.1,241.5z"/>
	<path class="st1" d="M251.1,204.4c3.7,0,6.2-2.5,6.2-6.2v-12.4c0-3.7-2.5-6.2-6.2-6.2s-6.2,2.5-6.2,6.2v12.4
		C245,201.9,247.4,204.4,251.1,204.4z"/>
	<path class="st1" d="M251.1,278.6c3.7,0,6.2-2.5,6.2-6.2V260c0-3.7-2.5-6.2-6.2-6.2s-6.2,2.5-6.2,6.2v12.4
		C245,276.1,247.4,278.6,251.1,278.6z"/>
	<path class="st1" d="M251.1,315.7c3.7,0,6.2-2.5,6.2-6.2v-12.4c0-3.7-2.5-6.2-6.2-6.2s-6.2,2.5-6.2,6.2v12.4
		C245,313.2,247.4,315.7,251.1,315.7z"/>
	<path class="st1" d="M251.1,352.8c3.7,0,6.2-2.5,6.2-6.2v-12.4c0-3.7-2.5-6.2-6.2-6.2s-6.2,2.5-6.2,6.2v12.4
		C245,350.3,247.4,352.8,251.1,352.8z"/>
	<path class="st1" d="M288.2,278.6c3.7,0,6.2-2.5,6.2-6.2V260c0-3.7-2.5-6.2-6.2-6.2s-6.2,2.5-6.2,6.2v12.4
		C282.1,276.1,284.5,278.6,288.2,278.6z"/>
	<path class="st1" d="M288.2,241.5c3.7,0,6.2-2.5,6.2-6.2v-12.4c0-3.7-2.5-6.2-6.2-6.2s-6.2,2.5-6.2,6.2v12.4
		C282.1,239,284.5,241.5,288.2,241.5z"/>
	<path class="st1" d="M288.2,352.8c3.7,0,6.2-2.5,6.2-6.2v-12.4c0-3.7-2.5-6.2-6.2-6.2s-6.2,2.5-6.2,6.2v12.4
		C282.1,350.3,284.5,352.8,288.2,352.8z"/>
	<path class="st1" d="M288.2,315.7c3.7,0,6.2-2.5,6.2-6.2v-12.4c0-3.7-2.5-6.2-6.2-6.2s-6.2,2.5-6.2,6.2v12.4
		C282.1,313.2,284.5,315.7,288.2,315.7z"/>
	<path class="st1" d="M288.2,204.4c3.7,0,6.2-2.5,6.2-6.2v-12.4c0-3.7-2.5-6.2-6.2-6.2s-6.2,2.5-6.2,6.2v12.4
		C282.1,201.9,284.5,204.4,288.2,204.4z"/>
	<path class="st1" d="M78,291c3.7,0,6.2-2.5,6.2-6.2v-12.4c0-3.7-2.5-6.2-6.2-6.2s-6.2,2.5-6.2,6.2v12.4C71.8,288.5,74.3,291,78,291
		z"/>
	<path class="st1" d="M78,328.1c3.7,0,6.2-2.5,6.2-6.2v-12.4c0-3.7-2.5-6.2-6.2-6.2s-6.2,2.5-6.2,6.2v12.4
		C71.8,325.6,74.3,328.1,78,328.1z"/>
	<path class="st1" d="M84.2,346.6c0-3.7-2.5-6.2-6.2-6.2s-6.2,2.5-6.2,6.2V359c0,3.7,2.5,6.2,6.2,6.2s6.2-2.5,6.2-6.2V346.6z"/>
	<path class="st1" d="M78,105.5c3.7,0,6.2-2.5,6.2-6.2V86.9c0-3.7-2.5-6.2-6.2-6.2s-6.2,2.5-6.2,6.2v12.4
		C71.8,103,74.3,105.5,78,105.5z"/>
	<path class="st1" d="M78,142.6c3.7,0,6.2-2.5,6.2-6.2V124c0-3.7-2.5-6.2-6.2-6.2s-6.2,2.5-6.2,6.2v12.4
		C71.8,140.1,74.3,142.6,78,142.6z"/>
	<path class="st1" d="M78,179.7c3.7,0,6.2-2.5,6.2-6.2v-12.4c0-3.7-2.5-6.2-6.2-6.2s-6.2,2.5-6.2,6.2v12.4
		C71.8,177.2,74.3,179.7,78,179.7z"/>
	<path class="st1" d="M78,216.8c3.7,0,6.2-2.5,6.2-6.2v-12.4c0-3.7-2.5-6.2-6.2-6.2s-6.2,2.5-6.2,6.2v12.4
		C71.8,214.3,74.3,216.8,78,216.8z"/>
	<path class="st1" d="M78,253.9c3.7,0,6.2-2.5,6.2-6.2v-12.4c0-3.7-2.5-6.2-6.2-6.2s-6.2,2.5-6.2,6.2v12.4
		C71.8,251.4,74.3,253.9,78,253.9z"/>
	<path class="st1" d="M115.1,142.6c3.7,0,6.2-2.5,6.2-6.2V124c0-3.7-2.5-6.2-6.2-6.2s-6.2,2.5-6.2,6.2v12.4
		C108.9,140.1,111.4,142.6,115.1,142.6z"/>
	<path class="st1" d="M115.1,105.5c3.7,0,6.2-2.5,6.2-6.2V86.9c0-3.7-2.5-6.2-6.2-6.2s-6.2,2.5-6.2,6.2v12.4
		C108.9,103,111.4,105.5,115.1,105.5z"/>
	<path class="st1" d="M115.1,216.8c3.7,0,6.2-2.5,6.2-6.2v-12.4c0-3.7-2.5-6.2-6.2-6.2s-6.2,2.5-6.2,6.2v12.4
		C108.9,214.3,111.4,216.8,115.1,216.8z"/>
	<path class="st1" d="M115.1,179.7c3.7,0,6.2-2.5,6.2-6.2v-12.4c0-3.7-2.5-6.2-6.2-6.2s-6.2,2.5-6.2,6.2v12.4
		C108.9,177.2,111.4,179.7,115.1,179.7z"/>
	<path class="st1" d="M115.1,253.9c3.7,0,6.2-2.5,6.2-6.2v-12.4c0-3.7-2.5-6.2-6.2-6.2s-6.2,2.5-6.2,6.2v12.4
		C108.9,251.4,111.4,253.9,115.1,253.9z"/>
	<path class="st1" d="M115.1,291c3.7,0,6.2-2.5,6.2-6.2v-12.4c0-3.7-2.5-6.2-6.2-6.2s-6.2,2.5-6.2,6.2v12.4
		C108.9,288.5,111.4,291,115.1,291z"/>
	<path class="st1" d="M115.1,328.1c3.7,0,6.2-2.5,6.2-6.2v-12.4c0-3.7-2.5-6.2-6.2-6.2s-6.2,2.5-6.2,6.2v12.4
		C108.9,325.6,111.4,328.1,115.1,328.1z"/>
	<path class="st1" d="M152.2,179.7c3.7,0,6.2-2.5,6.2-6.2v-12.4c0-3.7-2.5-6.2-6.2-6.2s-6.2,2.5-6.2,6.2v12.4
		C146,177.2,148.5,179.7,152.2,179.7z"/>
	<path class="st1" d="M152.2,142.6c3.7,0,6.2-2.5,6.2-6.2V124c0-3.7-2.5-6.2-6.2-6.2s-6.2,2.5-6.2,6.2v12.4
		C146,140.1,148.5,142.6,152.2,142.6z"/>
	<path class="st1" d="M152.2,105.5c3.7,0,6.2-2.5,6.2-6.2V86.9c0-3.7-2.5-6.2-6.2-6.2s-6.2,2.5-6.2,6.2v12.4
		C146,103,148.5,105.5,152.2,105.5z"/>
	<path class="st1" d="M152.2,328.1c3.7,0,6.2-2.5,6.2-6.2v-12.4c0-3.7-2.5-6.2-6.2-6.2s-6.2,2.5-6.2,6.2v12.4
		C146,325.6,148.5,328.1,152.2,328.1z"/>
	<path class="st1" d="M152.2,291c3.7,0,6.2-2.5,6.2-6.2v-12.4c0-3.7-2.5-6.2-6.2-6.2s-6.2,2.5-6.2,6.2v12.4
		C146,288.5,148.5,291,152.2,291z"/>
	<path class="st1" d="M152.2,253.9c3.7,0,6.2-2.5,6.2-6.2v-12.4c0-3.7-2.5-6.2-6.2-6.2s-6.2,2.5-6.2,6.2v12.4
		C146,251.4,148.5,253.9,152.2,253.9z"/>
	<path class="st1" d="M152.2,216.8c3.7,0,6.2-2.5,6.2-6.2v-12.4c0-3.7-2.5-6.2-6.2-6.2s-6.2,2.5-6.2,6.2v12.4
		C146,214.3,148.5,216.8,152.2,216.8z"/>
	<path class="st1" d="M189.3,142.6c3.7,0,6.2-2.5,6.2-6.2V124c0-3.7-2.5-6.2-6.2-6.2s-6.2,2.5-6.2,6.2v12.4
		C183.1,140.1,185.6,142.6,189.3,142.6z"/>
	<path class="st1" d="M189.3,105.5c3.7,0,6.2-2.5,6.2-6.2V86.9c0-3.7-2.5-6.2-6.2-6.2s-6.2,2.5-6.2,6.2v12.4
		C183.1,103,185.6,105.5,189.3,105.5z"/>
</g>
</svg>
