<?xml version="1.0" encoding="utf-8"?>
<!-- Generator: Adobe Illustrator 23.0.1, SVG Export Plug-In . SVG Version: 6.00 Build 0)  -->
<svg version="1.1" id="Layer_1" xmlns="http://www.w3.org/2000/svg" xmlns:xlink="http://www.w3.org/1999/xlink" x="0px" y="0px"
	 viewBox="0 0 1000 1000" style="enable-background:new 0 0 1000 1000;" xml:space="preserve">
<style type="text/css">
	.st0{fill:none;}
	.st1{fill:#993333;}
</style>
<g>
	<path class="st0" d="M352.6,568.9c-34,0-38.8,0.3-39.5,2.1c-0.4,1.2-0.8,26.8-0.8,56.8v54.7l3.6,1.5c4.4,1.6,74.5,1.1,76.2-0.5
		c1.7-1.7,2.1-108.7,0.4-112C391.2,569,389.7,568.9,352.6,568.9z"/>
	<path class="st0" d="M673.2,555.5c-7.9,3-15.7,5.9-23.3,8.6v216.2c7.7-8.2,13.4-19,15.4-30.1c0.9-5.2,1.5-36,1.5-86.9v-78.9
		l2.9-3.1c4.3-4.5,12-4.3,15.8,0.5c2.8,3.6,2.8,3.7,2.4,87.2l-0.4,83.7l-3.1,8.7c-4.7,12.7-10.3,22.1-19.8,32
		c-4.7,5-9.4,9-14.8,12.5v87.6c0,4.1,3.5,7.6,7.6,7.6h138.8V794.3c0-22.7,18.6-41,41.3-41h106.6V539.8c0-4.1-3.2-7.2-7.3-7.2H689.4
		C689.3,549.6,687.8,549.9,673.2,555.5z"/>
	<path class="st0" d="M657.4,498.8h9.7L667,487H566h101.1l-0.1-7.8c-0.3-30.5-1.1-58.9-1.7-63.3c-3.3-22.7-19.8-41.1-42-46.9
		c-7-1.7-38.8-2-270.9-1.9c-284.4,0-268.6-0.4-283.4,7.1c-8.3,4.3-18.1,14-22.3,22.3c-6.8,13.8-7.2,17.4-7.2,78.9v57.2l17.5,5.5
		c78.9,24.9,163.1,43.2,211.2,46.1c7,0.4,15,1.1,17.8,1.5l4.9,0.5v-7.9c0-10.3,5.1-20.5,13.2-26.2l5.8-4l39.6-0.4
		c21.9-0.3,41.6,0,43.9,0.4c4.9,0.8,15.8,9.9,18.7,15.6c1.1,2.1,2.4,8.2,2.8,13.2l0.8,9.2h4.1c2.3,0,15.6-0.7,29.6-1.3
		c56.4-3.1,96.4-10,149.7-26.7L599,523l0.1,35.3c5.5-1.7,11.1-3.5,16.9-5.5v-13C616.1,517,634.7,498.8,657.4,498.8z"/>
	<path class="st0" d="M616.1,575.6c-5.7,1.8-11.3,3.5-16.9,5.2l0.7,216.1c6.8-0.2,12.1-0.4,16.2-0.7V575.6z"/>
	<path class="st0" d="M649.8,539.8v1.5c4.6-1.6,8-2.9,9.6-3.5l8-3.1v-2.1h-10C653.4,532.6,649.8,535.7,649.8,539.8z"/>
	<path class="st0" d="M464.6,345.5l-0.5-26.6c-0.5-22.6-0.9-27.7-3.3-33.8c-7.1-19.1-27.3-31.8-60.2-38c-13.6-2.5-62.3-3.6-78.2-1.7
		c-41.9,5-69.8,20.7-76.9,43.5c-2.3,7.5-2.7,12.4-2.7,32.8v23.9h111h110.8V345.5z"/>
	<path class="st0" d="M830,794.3v91.3l98.8-98.5h-91.3C833.5,787,830,790.2,830,794.3z"/>
	<path class="st1" d="M449.4,585c-13.9,0.7-27.3,1.3-29.6,1.3l0,0c-2.3,0-4.2-1.8-4.4-4.1l-0.4-5.1c-0.4-5.1-1.7-11.1-2.8-13.2
		c-2.9-5.8-13.8-14.8-18.7-15.6c-2.3-0.4-21.9-0.7-43.9-0.4l-38.2,0.4c-0.9,0-1.8,0.3-2.5,0.8l-4.6,3.2
		c-8.2,5.8-13.2,15.9-13.2,26.2v2.9c0,2.7-2.3,4.7-4.9,4.4l0,0c-2.8-0.4-10.8-1.1-17.8-1.5C220,581.4,135.9,563,56.9,538.2
		l-14.4-4.5c-1.9-0.6-3.1-2.3-3.1-4.3v-54c0-61.5,0.4-65.1,7.2-78.9c4.3-8.3,14-18.1,22.3-22.3c14.8-7.5-0.9-7.1,283.4-7.1
		c232.1-0.1,263.9,0.1,270.9,1.9c22.2,5.9,38.7,24.2,42,46.9c0.7,4.4,1.5,32.8,1.7,63.3v3.4c0,2.5,2,4.4,4.5,4.4h12.8
		c2.5,0,4.5-2,4.5-4.5c-0.1-8-0.3-16.2-0.5-23.9c-0.9-44.7-1.1-45.6-4.5-55.9c-9.5-27.4-31.7-48.2-59.1-55.1c-6.6-1.6-19.3-2-73.2-2
		h-60.9c-2.4,0-4.4-1.9-4.5-4.3l-0.1-4.1c-0.1-4.5-0.3-16.7-0.5-27c-0.4-22.2-2.8-32-11.5-44.8c-12.7-19-39.5-33.2-74.6-39.5
		c-15.1-2.7-58.1-3.7-74.9-1.9c-33.7,3.7-64.3,15.5-81.2,31.2c-17.4,16.2-21.7,28.9-21.7,65.3l-0.1,20.7c0,2.5-2,4.4-4.5,4.4h-61.1
		c-42.8,0-67.8,0.5-72.5,1.5c-16.6,3.5-34.9,14.8-46.7,28.9c-7.1,8.4-15.4,25.8-17.1,35.7c-0.9,4.9-1.5,31.8-1.5,69.8v60.2
		c0,1.1,0.4,2.2,1.2,3l1.9,2.1c2.1,2.3,8.8,5.2,23.7,10c79.9,25.8,173.2,46.3,223.4,49c7.8,0.4,16.1,1.1,18.5,1.5l0.5,0.1
		c2.2,0.3,3.8,2.2,3.8,4.4v32.4c0,23.3,0.5,38,1.5,41.3c2.1,6.7,8.2,14,15,17.7c5.5,2.8,6.8,2.9,45.9,2.9h39c0.8,0,1.6-0.2,2.3-0.7
		l5.5-3.4c4-2.5,8-6.6,10.6-10.6l3.4-5.5c0.4-0.7,0.6-1.5,0.7-2.3l0.4-37.4l0.4-34.1c0-2.4,2-4.4,4.5-4.4h0.5
		c15,0,58.7-3.1,77.9-5.5c31-3.8,63.1-10.5,97.7-20.5c1.9-0.6,3.2-2.3,3.2-4.3v-13.1c0-3-2.9-5.1-5.8-4.3
		C542.8,575.4,503.8,582,449.4,585z M242.7,321.6c0-20.3,0.4-25.3,2.7-32.8c7.1-22.7,35-38.5,76.9-43.5c15.9-1.9,64.6-0.8,78.2,1.7
		c32.9,6.2,53.1,18.9,60.2,38c2.4,6.2,2.8,11.2,3.3,33.8l0.4,22.1c0.1,2.5-2,4.6-4.5,4.6H353.7H247.2c-2.5,0-4.5-2-4.5-4.5V321.6z
		 M392.1,683.5c-1.7,1.6-71.8,2.1-76.2,0.5l-0.8-0.3c-1.7-0.7-2.8-2.3-2.8-4.1v-51.7c0-30.1,0.4-55.6,0.8-56.8
		c0.7-1.9,5.5-2.1,39.5-2.1c37.2,0,38.7,0.1,40,2.7C394.3,574.8,393.9,681.8,392.1,683.5z"/>
	<path class="st1" d="M353.5,797.6c-188.9,0-263.8-0.4-268.9-1.5c-15.8-3.3-31.2-14.7-38-28.1c-7.1-14.2-7.2-15.4-7.2-102.3
		c0-79.3,0-80.5-2.8-84c-2.1-2.7-3.9-3.5-7.9-3.5s-5.8,0.8-7.9,3.5c-2.8,3.5-2.8,4.7-2.8,84.7c0,89.1,0.1,90.2,8.2,106.2
		c8.6,17,21.3,29.7,38.3,38.3c17.5,8.7-1.3,8.3,292.3,7.9l232.5-0.3c5.9,0,10.7-4.8,10.7-10.7l0,0c0-6-4.9-10.8-10.9-10.6
		C553.4,797.7,486.1,797.6,353.5,797.6z"/>
	<path class="st1" d="M649.8,541.3v-1.5c0-4.1,3.5-7.2,7.6-7.2h10l-0.2-33.8h-9.7c-22.7,0-41.4,18.2-41.4,41v13
		c0.6-0.2,1.2-0.4,1.9-0.6C629.8,548.2,641.7,544.2,649.8,541.3z"/>
	<path class="st1" d="M936.9,498.8H689.1c0.2,11.1,0.3,20.7,0.3,26.1c0,2.9,0,5.5,0,7.7h247.5c4.1,0,7.3,3.1,7.3,7.2v213.5H837.6
		c-22.7,0-41.3,18.3-41.3,41v106.9H657.4c-4.1,0-7.6-3.5-7.6-7.6V806c-5.2,3.4-10.9,6.3-17.6,8.9l-9,3.5H616v75.3
		c0,22.7,18.7,41.3,41.4,41.3h164.3c4.5,0,8.8-1.8,12-5l139.5-139.6c3.2-3.2,4.9-7.5,4.9-12V539.8C978,517,959.6,498.8,936.9,498.8z
		 M830,885.6v-91.3c0-4.1,3.4-7.3,7.5-7.3h91.3L830,885.6z"/>
	<path class="st1" d="M616.1,575.6v220.5c13.7-1,15-2.6,20.2-5.3c4.9-2.5,9.5-6.1,13.6-10.4V564.2
		C638.3,568.3,627,572.1,616.1,575.6z"/>
	<path class="st1" d="M667.4,532.6h22c0-2.3,0-4.8,0-7.7c0-5.4-0.1-14.9-0.3-26.1h-21.9L667.4,532.6z"/>
	<path class="st1" d="M649.8,541.3c-8.2,2.9-20.1,7-31.9,10.9c-0.6,0.2-1.2,0.4-1.9,0.6v22.8c11-3.5,22.2-7.3,33.8-11.4L649.8,541.3
		L649.8,541.3z"/>
	<path class="st1" d="M632.2,814.9c6.7-2.6,12.4-5.5,17.6-8.9v-25.6c-4.1,4.3-8.7,7.9-13.6,10.4c-5.2,2.7-6.5,4.3-20.2,5.3v22.3h7.2
		L632.2,814.9z"/>
</g>
<path class="st1" d="M897.3,599.4H687.7c-7.6,0-13.7-6.1-13.7-13.7l0,0c0-7.6,6.1-13.7,13.7-13.7h209.6c7.6,0,13.7,6.1,13.7,13.7
	l0,0C911,593.3,904.9,599.4,897.3,599.4z"/>
<path class="st1" d="M898.3,661.4H688.7c-7.6,0-13.7-6.1-13.7-13.7l0,0c0-7.6,6.1-13.7,13.7-13.7h209.6c7.6,0,13.7,6.1,13.7,13.7
	l0,0C912,655.3,905.9,661.4,898.3,661.4z"/>
<path class="st1" d="M903.3,726.4H693.7c-7.6,0-13.7-6.1-13.7-13.7l0,0c0-7.6,6.1-13.7,13.7-13.7h209.6c7.6,0,13.7,6.1,13.7,13.7
	l0,0C917,720.3,910.9,726.4,903.3,726.4z"/>
</svg>
